<svg xmlns="http://www.w3.org/2000/svg" fill="none" width="16" height="16" viewBox="0 0 16 16"><path fill-rule="evenodd" d="M4.87 4.94c.227-.71 1.21-.723 1.456-.02l1.177 3.378 3.101 1.013c.708.231.714 1.216.01 1.455l-3.183 1.082-1.105 3.17c-.245.704-1.23.69-1.455-.02l-.989-3.107-3.367-1.203c-.702-.25-.68-1.234.04-1.455l3.282-1.016 1.043-3.277Z" fill="#FFF"/><path fill-rule="evenodd" d="M12.238 1.3c.167-.667 1.1-.667 1.266 0l.388 1.551 1.55.388c.666.166.667 1.1 0 1.266l-1.55.388-.388 1.55c-.167.666-1.1.667-1.266 0l-.388-1.55-1.55-.388c-.667-.166-.667-1.1 0-1.266l1.55-.388.388-1.551Z" fill="#FFF"/></svg>